<svg width="200" height="200" viewBox="0 0 200 200" fill="none" xmlns="http://www.w3.org/2000/svg">
    <g clip-path="url(#clip0_1_41)">
    <path d="M82.6876 52.3016C84.6671 52.3016 86.2717 49.6126 86.2717 46.2955C86.2717 42.9784 84.6671 40.2894 82.6876 40.2894C80.7082 40.2894 79.1035 42.9784 79.1035 46.2955C79.1035 49.6126 80.7082 52.3016 82.6876 52.3016Z" fill="#3F3D56"/>
    <path d="M77.2297 38.4472L77.0132 38.8683L81.0344 44.673L81.2509 44.2518L77.2297 38.4472Z" fill="#DB4444"/>
    <path d="M77.1119 39.291C76.6184 40.2726 75.992 41.042 75.2848 41.5347L73.2592 45.3572L67.5218 56.9668L63.6455 60.8959L61.8457 55.7035L70.3421 41.8346L72.7097 37.798C72.8995 36.554 73.2643 35.4045 73.7739 34.4458C75.0281 32.0175 76.7925 31.1342 77.7143 32.4718C78.6363 33.8099 78.3667 36.8622 77.1119 39.291Z" fill="#FFAEAE"/>
    <path d="M42.4336 50.8264L46.1646 40.4212L62.0385 51.8508L70.715 39.9712L74.2803 45.1177C74.4032 45.2951 65.5308 65.8883 64.9008 65.8641C64.2708 65.8398 42.4336 50.8264 42.4336 50.8264Z" fill="#DDDDDD"/>
    <path d="M74.723 90.2851H70.0275C69.6011 90.2851 69.2379 89.8475 69.102 89.1703C68.9661 88.4931 69.0978 87.7767 69.4376 87.3451L70.3243 86.2183C70.7323 85.6999 70.9639 84.8788 70.9439 84.0215L70.6828 72.8266L68.8046 68.8806C67.3731 65.8732 66.7667 61.9714 67.1409 58.1758L67.7777 51.7176H77.3027L77.6439 59.9779C77.7949 63.6318 77.0436 67.2897 75.5828 70.0139L74.0666 72.8417L73.8283 83.9011C73.8111 84.7047 74.0099 85.4659 74.3738 85.9897L75.3591 87.4077C75.6722 87.8583 75.7819 88.5688 75.6385 89.2174C75.4951 89.866 75.1357 90.2851 74.723 90.2851Z" fill="#E6E7E8"/>
    <path d="M68.8691 54.2027H76.1165L76.376 60.4844C76.4937 63.3343 75.917 66.1426 74.7776 68.2675L73.5035 70.6437H71.2356L69.6792 67.3738C68.5671 65.0375 68.0983 62.0207 68.389 59.0721L68.8691 54.2027Z" fill="#3F3D56"/>
    <path d="M0 196.859C0 197.174 0.150963 197.427 0.338952 197.427H199.661C199.849 197.427 200 197.174 200 196.859C200 196.544 199.849 196.291 199.661 196.291H0.338952C0.150963 196.291 0 196.544 0 196.859Z" fill="#3F3D56"/>
    <path d="M147.07 174.698V187.214L152.717 187.519L152.482 174.698H147.07Z" fill="#FFB5B5"/>
    <path d="M145.952 181.662C145.876 181.662 145.801 181.679 145.729 181.713C144.71 182.201 138.81 191.028 137.026 193.721C136.806 194.054 136.689 194.529 136.705 195.025C136.721 195.518 136.868 195.967 137.107 196.256C138.46 197.888 141.231 200.471 144.594 199.427C146.141 198.947 147.702 198.645 149.079 198.379C152.028 197.808 154.357 197.358 154.357 195.609C154.357 192.641 153.869 184.82 153.258 184.491C153.203 184.463 153.138 184.535 153.064 184.708C152.129 186.902 148.917 185.735 148.781 185.684L148.745 185.671L148.725 185.62C148.708 185.578 147.135 181.662 145.952 181.662Z" fill="#2F2E41"/>
    <path d="M136.504 174.698V187.214L142.152 187.519L141.916 174.698H136.504Z" fill="#FFB5B5"/>
    <path d="M134.227 85.1025L131.221 88.9183L130.675 131.961L135.775 178.972L142.425 179.43L142.607 134.556L151.169 93.6499L149.438 84.0341L134.227 85.1025Z" fill="#2F2E41"/>
    <path d="M148.254 92.4289L151.169 93.65L153.264 178.972L145.704 177.903L140.694 117.613L148.254 92.4289Z" fill="#2F2E41"/>
    <path d="M132.473 199.972C129.881 199.972 127.776 198.052 126.651 196.758C126.311 196.367 126.101 195.746 126.074 195.055C126.047 194.358 126.209 193.69 126.519 193.222C129.31 189.015 134.138 181.887 135.113 181.42C136.376 180.813 138.072 184.862 138.29 185.399C138.643 185.52 141.535 186.446 142.351 184.531C142.506 184.166 142.652 184.149 142.748 184.201C143.62 184.669 143.973 194.076 143.973 195.609C143.973 197.63 141.692 198.071 138.535 198.682C137.16 198.948 135.603 199.25 134.062 199.727C133.516 199.897 132.985 199.972 132.473 199.972Z" fill="#2F2E41"/>
    <path d="M112.231 61.3964C110.041 60.016 108.718 56.9425 109.277 54.5318C109.836 52.1211 112.064 51.2865 114.255 52.6679C115.135 53.1989 115.921 54.0865 116.547 55.2565L125.78 61.3079L123.888 68.7449L114.986 61.9897C114.046 62.1725 113.101 61.969 112.231 61.3964Z" fill="#FFB5B5"/>
    <path d="M134.348 33.4356C137.673 33.2687 140.321 38.0597 139.967 43.6026L138.234 70.7465C138.045 73.709 136.314 75.6783 134.601 74.88C128.427 72.4411 127.773 72.8356 122.491 68.5824L125 59.8409L129.906 60.7566L129.046 43.3852C128.785 38.1351 131.206 33.5933 134.348 33.4356Z" fill="#DB4444"/>
    <path d="M140.473 29.3522L142.548 36.3569L134.706 42.7038L134.802 31.4743L140.473 29.3522Z" fill="#FFB5B5"/>
    <path d="M134.734 34.6511C138.631 34.6511 141.79 29.3569 141.79 22.8262C141.79 16.2955 138.631 11.0013 134.734 11.0013C130.837 11.0013 127.677 16.2955 127.677 22.8262C127.677 29.3569 130.837 34.6511 134.734 34.6511Z" fill="#FFB5B5"/>
    <path d="M134.686 39.9729L141.921 32.8083C147.228 39.0448 151.647 40.5038 151.788 51.3629L150.81 77.2658L150.867 88.4215C150.891 93.1046 148.632 96.9226 145.837 96.9226H135.506C132.771 96.9226 130.734 92.6954 131.31 88.2163L133.261 73.0405L131.178 43.4634L134.686 39.9729Z" fill="#DB4444"/>
    <path d="M124.049 71.4511C121.791 70.4245 120.301 67.5747 120.721 65.0861C121.141 62.5976 123.312 61.4131 125.571 62.4406C126.477 62.8296 127.31 63.5885 127.999 64.6538L137.533 69.2129L136.069 76.9167L126.826 71.6044C125.9 71.9356 124.948 71.883 124.049 71.4511Z" fill="#FFB5B5"/>
    <path d="M144.488 40.1061C147.788 39.4123 150.695 43.7615 150.656 49.3357L150.465 76.6327C150.444 79.6118 148.832 81.847 147.082 81.324C140.797 79.8759 141.206 80.9986 135.707 77.6029L136.396 67.6799L141.609 68.0092L139.771 50.8525C139.215 45.6673 141.368 40.7618 144.488 40.1061Z" fill="#DB4444"/>
    <path d="M141.99 28.7759L140.686 30.3421C140.686 30.3421 140.302 23.5157 139.772 23.2128C139.242 22.9099 138.528 24.4832 138.528 24.4832L138.006 27.0459L136.28 25.8404C136.28 25.8404 134.282 24.0369 133.575 23.633C132.869 23.2291 132.976 19.7996 132.976 19.7996C132.976 19.7996 124.498 21.7449 125.772 13.5542C125.772 13.5542 126.21 7.52853 127.149 8.72615C128.088 9.92378 128.101 6.95793 128.101 6.95793L130.228 6.19242C130.228 6.19242 133.147 -0.396768 138.905 5.20862C144.663 10.814 141.99 28.7759 141.99 28.7759Z" fill="#2F2E41"/>
    <path d="M49.2469 32.7727H43.73V50.719H49.2469V32.7727Z" fill="#FFAEAE"/>
    <path d="M58.3548 82.7805L45.0492 81.149C45.0492 81.149 39.5323 102.358 43.7511 115.954L46.6718 144.233L45.5169 190.778H51.5603L60.951 115.954L58.3548 82.7805Z" fill="#2F2E41"/>
    <path d="M55.7589 106.535L60.9514 114.109L58.3551 188.283H52.5137L55.7589 106.535Z" fill="#2F2E41"/>
    <path d="M53.3114 24.7429C53.3114 31.1264 50.2233 36.3013 46.414 36.3013C42.6047 36.3013 39.5166 31.1265 39.5166 24.7429C39.5166 18.3594 42.6047 13.1846 46.414 13.1846C50.2233 13.1846 53.3114 18.3594 53.3114 24.7429Z" fill="#FFAEAE"/>
    <path d="M45.5877 179.732L52.7127 181.618L54.0518 190.183C54.0518 190.183 59.8369 193.831 57.0494 197.795C54.2619 201.76 43.9641 199.71 43.1499 196.866C42.3357 194.023 45.5877 179.732 45.5877 179.732Z" fill="#2F2E41"/>
    <path d="M51.429 179.732L58.554 181.618L59.8931 190.183C59.8931 190.183 65.6783 193.831 62.8907 197.795C60.1032 201.76 49.8054 199.71 48.9912 196.866C48.177 194.023 51.429 179.732 51.429 179.732Z" fill="#2F2E41"/>
    <path d="M71.1127 80.941C70.3468 80.9552 69.5902 80.662 68.9058 80.0857L65.8555 80.0086L56.862 80.3011L52.5557 77.944L53.7286 72.27L65.5443 74.0059L68.9146 74.3774C69.6009 73.8065 70.3588 73.5195 71.1248 73.5407C73.0413 73.5483 74.5922 75.2119 74.589 77.2554C74.5858 79.2993 73.0298 80.9491 71.1127 80.941Z" fill="#FFAEAE"/>
    <path d="M49.7552 39.5463H42.9272L40.6685 50.9666L45.0496 81.149L58.3551 82.7805L57.5438 70.5444C59.1147 66.2668 58.9893 60.8232 57.2264 56.7612L49.7552 39.5463Z" fill="#DDDDDD"/>
    <path d="M43.2647 44.4407L50.4042 42.3868L55.5966 70.0006L66.6305 73.2635V81.149C66.6305 81.421 51.5291 83.5963 51.1289 82.7805C50.7287 81.9648 43.2647 44.4407 43.2647 44.4407Z" fill="#DDDDDD"/>
    <path d="M49.858 18.0417C50.7053 20.3452 49.9241 23.3792 48.8803 25.4438C47.8365 27.5085 46.4906 29.3208 46.0245 31.9116C45.6067 34.2344 45.9868 36.7396 46.4782 39.0217C46.9696 41.3038 47.5805 43.5791 47.6312 46.0037C47.6818 48.4283 46.9971 51.1059 45.6342 51.9244C44.2356 52.7644 42.5822 51.4444 41.2352 52.4944C39.4806 53.8621 39.083 58.597 37.1702 59.0879C35.993 59.39 34.902 57.6798 34.573 55.7618C34.244 53.8438 34.4803 51.7966 34.7181 49.8411C35.3697 44.4833 36.0214 39.1256 36.673 33.7678C37.2152 29.3099 37.7573 24.8519 38.2995 20.3939C38.6232 17.7323 39.0073 14.8852 40.201 13.0475C41.6597 10.802 43.8583 10.7486 45.8374 10.8832C47.6557 11.0068 49.5475 11.2153 51.1305 12.7197C52.7134 14.2241 53.8762 17.422 53.3284 20.3301C52.8168 18.2833 51.2882 17.1351 50.036 17.8569" fill="#2F2E41"/>
    <path d="M37.6029 30.3958C37.0105 27.1311 43.0031 34.0598 44.4929 31.7337C45.0014 30.9398 47.4883 22.6072 48.0444 21.3613C48.7675 19.7411 48.9779 20.0241 50.0738 18.9807C51.1697 17.9373 49.759 16.0905 50.8927 16.6744C51.1592 14.8214 52.0264 17.2583 50.8927 16.6744C50.9208 16.2533 50.7434 15.669 50.7506 14.9403C50.8061 9.28413 47.9417 6.03025 44.3662 6.18237C43.6511 6.2128 43.0983 5.31944 42.7089 5.12978C41.718 4.6471 39.9848 4.33102 38.2739 4.80173C38.5254 2.2675 37.0626 0.0552248 35.3854 0.00120535C33.7082 -0.0528141 32.0286 1.71537 31.1417 4.00048C30.2548 6.28559 30.072 8.97984 30.3033 11.4439C30.4198 12.6847 30.6662 13.9646 31.3039 14.7078C31.9417 15.4509 33.0684 15.3791 33.5714 14.2762C34.8296 18.8352 34.509 30.1689 37.6029 30.3958Z" fill="#DB4444"/>
    <path d="M115.663 68.921H110.967C110.541 68.921 110.178 68.4834 110.042 67.8064C109.906 67.1292 110.038 66.4127 110.377 65.981L111.264 64.8543C111.672 64.3359 111.904 63.5148 111.884 62.6575L111.623 51.4626L109.744 47.5167C108.313 44.5093 107.707 40.6075 108.081 36.8118L108.718 30.3535H118.243L118.584 38.6138C118.735 42.2674 117.983 45.9255 116.523 48.65L115.006 51.4776L114.768 62.5371C114.751 63.3406 114.95 64.1019 115.314 64.6257L116.299 66.0436C116.612 66.4943 116.722 67.2047 116.578 67.8533C116.435 68.5019 116.076 68.921 115.663 68.921Z" fill="#E6E7E8"/>
    <path d="M109.809 32.8387H117.056L117.316 39.1204C117.434 41.9703 116.857 44.7786 115.718 46.9035L114.443 49.2797H112.176L110.619 46.0098C109.507 43.6735 109.038 40.6566 109.329 37.7081L109.809 32.8387Z" fill="#3F3D56"/>
    </g>
    <defs>
    <clipPath id="clip0_1_41">
    <rect width="200" height="200" fill="white"/>
    </clipPath>
    </defs>
    </svg>
    