<svg width="200" height="213" viewBox="0 0 200 213" fill="none" xmlns="http://www.w3.org/2000/svg">
    <g clip-path="url(#clip0_1_114)">
    <path d="M21.7257 150.127C20.8619 150.294 19.9188 150.543 18.9156 150.91C14.6651 152.461 14.5749 157.629 14.6132 158.813L14.5831 158.779C14.1567 160.007 13.8888 161.25 13.7248 162.42L13.5307 146.58C13.6564 146.11 13.7712 145.576 13.8669 145.033C14.184 146.79 14.7061 148.444 15.1571 148.336C15.7421 148.194 15.9963 145.111 15.887 142.924C16.6305 144.637 17.8824 146.472 18.3553 145.904C18.7325 145.454 18.5084 143.594 18.0983 141.901C18.9566 142.826 19.9079 143.433 20.2031 142.846C20.6049 142.043 19.64 139.308 18.7516 137.781C19.9407 137.982 21.455 137.639 21.5562 136.67C21.6382 135.873 20.7361 134.864 19.7712 134.214C20.7389 133.759 21.6464 132.961 21.6163 132.173C21.5808 131.238 20.2359 130.607 19.0742 130.514C19.9489 129.291 20.7525 127.593 20.5065 126.829C20.2796 126.125 19.23 126.399 18.2596 127.02C18.8336 125.552 19.2382 123.893 18.9293 123.326C18.5466 122.621 17.1881 123.839 16.2587 125.185C16.4391 123.086 16.3489 120.439 15.8214 120.199C15.3813 119.998 14.758 121.54 14.3316 123.218C14.143 121.456 13.7603 119.783 13.3202 119.783C12.6915 119.783 12.1831 123.174 12.1831 125.386C12.1831 125.513 12.1831 125.63 12.1886 125.743C12.1257 125.611 12.0519 125.474 11.9699 125.332C11.0842 123.791 9.37035 122.083 8.93027 122.89C8.62412 123.458 9.02594 125.112 9.59997 126.585C8.62958 125.963 7.5772 125.689 7.35305 126.394C7.04964 127.338 8.34804 129.702 9.40316 130.847C9.34029 130.832 9.27195 130.822 9.20088 130.813C7.96808 130.661 6.04372 131.341 5.99998 132.462C5.96991 133.25 6.87469 134.047 7.84508 134.502C6.88016 135.153 5.98085 136.161 6.06012 136.959C6.15852 137.928 7.67287 138.27 8.86466 138.07C7.97628 139.597 7.01137 142.332 7.41319 143.134C7.7084 143.722 8.65965 143.115 9.51796 142.19C9.10521 143.883 8.8838 145.743 9.26102 146.193C9.75851 146.79 11.128 144.71 11.8469 142.924C11.7731 145.111 12.0656 148.116 12.6451 148.234C12.8883 148.282 13.1453 147.818 13.3776 147.108L12.7216 164.132C12.5685 166.114 13.5498 167.411 13.6373 168.223L13.7794 179.752C13.6182 178.93 13.405 178.089 13.1125 177.257L13.0824 177.291C13.1207 176.107 13.0305 170.939 8.77992 169.388C7.77674 169.021 6.83369 168.771 5.96991 168.605C4.95033 168.409 4.55124 170.91 5.47242 171.717C6.80636 172.887 8.06102 174.36 8.71705 176.102C10.3899 180.56 12.6997 177.986 13.0305 177.585C13.3968 178.681 13.6373 179.782 13.7904 180.829L13.8669 186.951C13.8478 187.098 13.8368 187.176 13.8341 187.181L13.8697 187.2L14.0528 202.018L15.7421 201.993L15.138 186.848C15.2391 186.031 15.5507 183.246 15.138 180.359L14.5339 168.458L13.7466 163.78C13.8615 162.332 14.1266 160.707 14.6678 159.097C14.9958 159.498 17.3084 162.077 18.9812 157.614C19.6345 155.872 20.8919 154.399 22.2259 153.23C23.1471 152.422 22.7507 149.922 21.7284 150.117L21.7257 150.127ZM14.0091 185.184L13.9763 182.591C14.0391 183.569 14.0364 184.455 14.0091 185.184Z" fill="#F2F2F2"/>
    <path d="M0 202.732C0 203.055 0.144874 203.315 0.325283 203.315H199.675C199.855 203.315 200 203.055 200 202.732C200 202.409 199.855 202.15 199.675 202.15H0.325283C0.144874 202.15 0 202.409 0 202.732Z" fill="#3F3D56"/>
    <path d="M120.978 203.246C129.13 203.246 135.739 191.415 135.739 176.821C135.739 162.227 129.13 150.396 120.978 150.396C112.826 150.396 106.217 162.227 106.217 176.821C106.217 191.415 112.826 203.246 120.978 203.246Z" fill="#3F3D56"/>
    <path d="M120.978 194.438C126.412 194.438 130.818 186.551 130.818 176.821C130.818 167.092 126.412 159.205 120.978 159.205C115.543 159.205 111.137 167.092 111.137 176.821C111.137 186.551 115.543 194.438 120.978 194.438Z" fill="white"/>
    <path d="M120.978 186.853C124.072 186.853 126.581 182.362 126.581 176.821C126.581 171.281 124.072 166.79 120.978 166.79C117.883 166.79 115.374 171.281 115.374 176.821C115.374 182.362 117.883 186.853 120.978 186.853Z" fill="#3F3D56"/>
    <path d="M35.6934 203.246C43.8455 203.246 50.4541 191.415 50.4541 176.821C50.4541 162.227 43.8455 150.396 35.6934 150.396C27.5412 150.396 20.9326 162.227 20.9326 176.821C20.9326 191.415 27.5412 203.246 35.6934 203.246Z" fill="#3F3D56"/>
    <path d="M35.6935 194.438C41.1283 194.438 45.534 186.551 45.534 176.821C45.534 167.092 41.1283 159.205 35.6935 159.205C30.2588 159.205 25.853 167.092 25.853 176.821C25.853 186.551 30.2588 194.438 35.6935 194.438Z" fill="white"/>
    <path d="M141.17 164.255C139.248 155.579 132.53 129.071 120.562 120.297C120.469 120.228 120.374 120.184 120.275 120.16L81.8947 110.319C81.2632 110.157 80.6728 110.93 80.5717 112.061L79.8992 119.499C79.8528 120.008 79.9129 120.531 80.0687 120.967C82.0177 126.379 94.5096 163.124 74.5061 163.124C54.5025 163.124 48.9891 137.497 48.1144 132.971C48.0324 132.545 48.0297 132.085 48.1035 131.654L54.1663 97.2776C54.2729 96.666 54.2155 96.0396 54.0406 95.5405L56.7057 86.6784L61.5877 91.6257L64.1162 91.6795L72.7457 99.7538L74.5034 94.6156L56.7057 78.7215C56.7057 78.7215 56.7358 75.0416 50.9955 72.1056L41.975 64.7653L40.8816 67.2121L43.6151 71.1269L43.8885 74.0629L45.8019 75.0416L49.6287 88.2541L48.5354 92.0416L49.8638 93.2014L49.4839 93.0448C48.9344 92.8197 48.3741 93.3286 48.1499 94.2535L42.1199 118.995C42.027 119.372 41.8739 119.695 41.6798 119.92L39.5313 122.401C39.3318 122.631 39.1732 122.968 39.083 123.365L36.6284 134.018C36.5518 134.351 36.5299 134.698 36.5491 135.036C33.4903 136.073 24.4999 140.556 19.5605 158.236L25.3008 166.555C25.3008 166.555 34.2994 156.132 49.1695 166.985C51.7554 174.189 55.5249 180.164 60.9699 180.726C75.3234 182.214 99.1046 183.682 101.838 177.81C103.839 173.508 105.23 170.827 105.834 169.696C106.048 169.3 106.337 169.07 106.644 169.05L140.115 167.137C140.927 167.093 141.465 165.615 141.167 164.265L141.17 164.255Z" fill="#DB4444"/>
    <path d="M48.814 87.2705C51.2294 87.2705 53.1875 83.7651 53.1875 79.4409C53.1875 75.1167 51.2294 71.6113 48.814 71.6113C46.3985 71.6113 44.4404 75.1167 44.4404 79.4409C44.4404 83.7651 46.3985 87.2705 48.814 87.2705Z" fill="#3F3D56"/>
    <path d="M118.854 120.331C118.802 120.331 118.75 120.331 118.698 120.326L82.1299 117.791C80.5116 117.679 79.1258 115.834 78.5982 113.093L78.098 110.485C77.6907 108.361 77.8684 106.081 78.5845 104.236C79.3034 102.391 80.4351 101.305 81.6898 101.251L119.472 99.695C120.642 99.6461 121.768 100.542 122.531 102.156C123.293 103.771 123.605 105.885 123.383 107.965L122.67 114.659C122.317 117.982 120.724 120.326 118.851 120.326L118.854 120.331Z" fill="#3F3D56"/>
    <path d="M35.6935 186.853C38.7883 186.853 41.2971 182.362 41.2971 176.821C41.2971 171.281 38.7883 166.79 35.6935 166.79C32.5987 166.79 30.0898 171.281 30.0898 176.821C30.0898 182.362 32.5987 186.853 35.6935 186.853Z" fill="#3F3D56"/>
    <path d="M133.546 148.263C132.672 148.263 131.838 147.426 131.392 145.983L128.623 137.008C128.183 135.584 128.21 133.915 128.692 132.54C129.173 131.16 130.004 130.387 130.906 130.475L135.933 130.935C136.867 131.023 137.709 132.075 138.076 133.622L139.543 139.836C139.811 140.976 139.806 142.219 139.524 143.35C139.243 144.475 138.729 145.322 138.078 145.723L134.355 148.023C134.09 148.189 133.817 148.268 133.549 148.268L133.546 148.263Z" fill="#3F3D56"/>
    <path d="M69.9796 207.91C69.9386 207.91 69.8948 207.91 69.8538 207.895L68.7386 207.675C68.375 207.601 68.0579 207.234 67.872 206.667C67.6862 206.099 67.6616 205.429 67.8037 204.822L73.6096 180.139C73.7681 179.464 74.1208 178.984 74.528 178.891C74.9244 178.803 75.3098 179.082 75.564 179.635C75.8155 180.188 75.8921 180.922 75.7636 181.597L71.0757 206.5C70.9171 207.342 70.4688 207.905 69.9823 207.905L69.9796 207.91Z" fill="#3F3D56"/>
    <path d="M100.122 35.6637C100.122 35.6637 97.9976 28.0593 98.4213 21.2182L91.3525 27.7754L91.6259 40.2245L100.122 35.6637Z" fill="#A0616A"/>
    <path d="M95.7346 31.2889C99.2566 31.2889 102.112 26.1776 102.112 19.8724C102.112 13.5673 99.2566 8.45593 95.7346 8.45593C92.2126 8.45593 89.3574 13.5673 89.3574 19.8724C89.3574 26.1776 92.2126 31.2889 95.7346 31.2889Z" fill="#A0616A"/>
    <path d="M102.248 199.131H98.3559L96.5054 172.26H102.248V199.131Z" fill="#A0616A"/>
    <path d="M88.9173 198.969C88.7971 199.336 88.7314 200.516 88.7314 200.936C88.7314 202.243 89.3219 203.3 90.0517 203.3H102.101C102.598 203.3 103.003 202.576 103.003 201.685V200.785C103.003 200.785 103.599 198.083 102.371 194.761C102.371 194.761 100.846 197.364 98.5665 193.288L97.8941 191.11L93.0285 197.482L90.3305 198.074C89.7401 198.206 89.218 198.054 88.9146 198.969H88.9173Z" fill="#2F2E41"/>
    <path d="M90.7761 35.6637L100.122 33.3834L107.344 39.466L107.767 86.6098C107.767 86.6098 90.0053 90.4121 87.2062 85.4696C84.4071 80.5272 86.531 40.9878 86.531 40.9878L90.7788 35.6637H90.7761Z" fill="#E6E6E6"/>
    <path d="M94.1382 22.7792H92.4243C92.4243 22.7792 90.9373 19.5006 91.1368 21.4971C91.3364 23.4936 90.5355 25.6419 90.5355 25.6419L89.3355 24.9274C89.3355 24.9274 86.9355 6.85578 94.1382 5.8624C101.341 4.86903 102.943 14.9007 102.943 14.9007C102.943 14.9007 102.544 19.9165 101.743 18.4827C100.942 17.0489 96.5409 16.3345 96.5409 16.3345L94.1409 22.7841L94.1382 22.7792Z" fill="#2F2E41"/>
    <path d="M89.6032 193.092L85.861 194.981L80.0005 170.029L85.5276 167.235L89.6032 193.092Z" fill="#A0616A"/>
    <path d="M76.7505 199.424C76.6904 199.835 76.8079 201 76.8708 201.411C77.0676 202.669 77.7974 203.398 78.4999 203.045L90.0953 197.183C90.5737 196.943 90.8525 196.048 90.7186 195.191L90.5819 194.325C90.5819 194.325 90.7459 191.438 89.0594 188.835C89.0594 188.835 87.9878 192.084 85.1751 189.265L84.1965 187.494L80.4817 195.989L77.9778 197.873C77.4312 198.284 76.9036 198.397 76.7505 199.424Z" fill="#2F2E41"/>
    <path d="M106.491 82.0491L107.764 88.9489V112.658L103.94 184.22H96.4725L95.6306 133.137L96.2948 107.906L82.0507 146.487L88.3103 174.042L81.4193 182.268C81.4193 182.268 71.1141 140.228 72.6557 136.151C74.1974 132.08 88.0069 83.9918 88.0069 83.9918C88.0069 83.9918 106.485 82.8125 106.485 82.054L106.491 82.0491Z" fill="#2F2E41"/>
    <path d="M110.315 54.6749L112.368 60.6939C112.368 60.6939 115.27 81.1193 112.368 81.2025C109.465 81.2857 103.604 70.7941 103.604 70.7941L104.369 65.3183L106.493 66.8401L106.07 54.6749H110.317H110.315Z" fill="#A0616A"/>
    <path d="M103.943 39.373C103.943 39.373 110.739 37.2297 111.376 45.1914C112.013 53.1531 112.368 60.6988 112.368 60.6988L105.004 61.7901L103.943 39.373Z" fill="#E6E6E6"/>
    <path d="M105.419 70.1275C106.034 68.5822 105.134 65.5463 103.409 63.3465C101.684 61.1468 99.7866 60.6163 99.1718 62.1616C98.557 63.707 99.4571 66.7429 101.182 68.9427C102.908 71.1424 104.804 71.6729 105.419 70.1275Z" fill="#A0616A"/>
    <path d="M161.406 150.127C160.543 150.294 159.599 150.543 158.596 150.91C154.346 152.461 154.256 157.629 154.294 158.813L154.264 158.779C153.837 160.007 153.569 161.25 153.405 162.42L153.211 146.58C153.337 146.11 153.452 145.576 153.548 145.033C153.865 146.79 154.387 148.444 154.838 148.336C155.423 148.194 155.677 145.111 155.568 142.924C156.311 144.637 157.563 146.472 158.036 145.904C158.413 145.454 158.189 143.594 157.779 141.901C158.637 142.826 159.589 143.433 159.884 142.846C160.286 142.043 159.321 139.308 158.432 137.781C159.621 137.982 161.136 137.639 161.237 136.67C161.319 135.873 160.417 134.864 159.452 134.214C160.42 133.759 161.327 132.961 161.297 132.173C161.261 131.238 159.917 130.607 158.755 130.514C159.63 129.291 160.433 127.593 160.187 126.829C159.96 126.125 158.911 126.399 157.94 127.02C158.514 125.552 158.919 123.893 158.61 123.326C158.227 122.621 156.869 123.839 155.939 125.185C156.12 123.086 156.03 120.439 155.502 120.199C155.062 119.998 154.439 121.54 154.012 123.218C153.824 121.456 153.441 119.783 153.001 119.783C152.372 119.783 151.864 123.174 151.864 125.386C151.864 125.513 151.864 125.63 151.869 125.743C151.806 125.611 151.733 125.474 151.651 125.332C150.765 123.791 149.051 122.083 148.611 122.89C148.305 123.458 148.707 125.112 149.281 126.585C148.31 125.963 147.258 125.689 147.034 126.394C146.73 127.338 148.029 129.702 149.084 130.847C149.021 130.832 148.953 130.822 148.882 130.813C147.649 130.661 145.724 131.341 145.681 132.462C145.651 133.25 146.555 134.047 147.526 134.502C146.561 135.153 145.662 136.161 145.741 136.959C145.839 137.928 147.354 138.27 148.545 138.07C147.657 139.597 146.692 142.332 147.094 143.134C147.389 143.722 148.34 143.115 149.199 142.19C148.786 143.883 148.564 145.743 148.942 146.193C149.439 146.79 150.809 144.71 151.528 142.924C151.454 145.111 151.746 148.116 152.326 148.234C152.569 148.282 152.826 147.818 153.058 147.108L152.402 164.132C152.249 166.114 153.23 167.411 153.318 168.223L153.46 179.752C153.299 178.93 153.086 178.089 152.793 177.257L152.763 177.291C152.801 176.107 152.711 170.939 148.461 169.388C147.457 169.021 146.514 168.771 145.651 168.605C144.631 168.409 144.232 170.91 145.153 171.717C146.487 172.887 147.742 174.36 148.398 176.102C150.071 180.56 152.38 177.986 152.711 177.585C153.077 178.681 153.318 179.782 153.471 180.829L153.548 186.951C153.528 187.098 153.518 187.176 153.515 187.181L153.55 187.2L153.733 202.018L155.423 201.993L154.819 186.848C154.92 186.031 155.231 183.246 154.819 180.359L154.215 168.458L153.427 163.78C153.542 162.332 153.807 160.707 154.348 159.097C154.676 159.498 156.989 162.077 158.662 157.614C159.315 155.872 160.573 154.399 161.907 153.23C162.828 152.422 162.431 149.922 161.409 150.117L161.406 150.127ZM153.69 185.184L153.657 182.591C153.72 183.569 153.717 184.455 153.69 185.184Z" fill="#F2F2F2"/>
    <path d="M141.733 200.178L144.672 199.043L143.619 178.226L139.287 179.899L141.733 200.178Z" fill="#A0616A"/>
    <path d="M151.781 196.17C151.907 196.41 152.063 197.281 152.101 197.604C152.221 198.588 151.871 199.561 151.319 199.772L142.225 203.29C141.851 203.437 141.479 203.006 141.397 202.336L141.315 201.656C141.315 201.656 140.618 199.791 141.241 196.924C141.241 196.924 142.63 198.446 143.977 194.697L144.286 192.857L148.539 196.244L150.628 195.906C151.084 195.832 151.467 195.563 151.779 196.17H151.781Z" fill="#2F2E41"/>
    <path d="M146.987 198.587L149.436 195.475L143.896 177.076L140.279 181.666L146.987 198.587Z" fill="#A0616A"/>
    <path d="M155.343 187.822C155.51 187.954 155.846 188.644 155.95 188.913C156.275 189.735 156.169 190.875 155.71 191.458L148.121 201.098C147.807 201.494 147.375 201.362 147.151 200.804L146.927 200.237C146.927 200.237 145.877 199.013 145.82 195.935C145.82 195.935 147.43 196.356 147.848 191.962L147.728 190.053L152.383 190.171L154.231 188.389C154.635 187.998 154.928 187.484 155.346 187.822H155.343Z" fill="#2F2E41"/>
    <path d="M111.69 95.653C111.69 95.653 107.122 106.771 116.257 119.274L134.913 108.601L128.249 83.7227L122.348 77.9288L111.687 95.6481L111.69 95.653Z" fill="#2F2E41"/>
    <path d="M134.916 108.606L142.149 133.822L146.719 186.31L141.009 186.99L135.296 137.233L125.207 110.309L132.251 104.515" fill="#2F2E41"/>
    <path d="M116.26 111.356V119.279L129.206 144.73C129.206 144.73 129.206 163.814 134.156 172.676L139.867 188.355L144.817 183.584L137.584 137.918L124.638 107.926L116.263 111.356H116.26Z" fill="#2F2E41"/>
    <path d="M125.458 32.8206L123.02 49.4634L113.724 46.1896C113.724 46.1896 120.21 34.2153 119.297 28.759L125.461 32.8206H125.458Z" fill="#A0616A"/>
    <path d="M118.354 35.331L124.064 40.1021C124.064 40.1021 127.003 43.3171 127.057 45.4605C127.112 47.6038 126.729 57.8263 126.729 57.8263C126.729 57.8263 129.014 61.9173 127.492 70.0943L128.255 83.7276L111.121 100.086L112.644 71.4596L111.881 44.8782L118.354 35.3359V35.331Z" fill="#DB4444"/>
    <path d="M113.229 112.903C113.899 115.648 115.233 117.258 116.208 116.494C117.184 115.731 117.433 112.888 116.766 110.143C116.506 109.037 116.105 108.063 115.591 107.295L112.674 95.7215L109.67 98.2857L112.863 109.423C112.827 110.617 112.953 111.811 113.229 112.903Z" fill="#A0616A"/>
    <path d="M116.26 46.5811C116.26 46.5811 112.072 41.8099 110.55 47.2613C109.027 52.7126 105.6 80.6593 105.6 80.6593L110.55 107.241L115.118 103.835L111.118 75.2276L116.257 46.5811H116.26Z" fill="#DB4444"/>
    <path d="M137.726 108.611C138.912 110.725 140.484 111.341 141.236 109.986C141.987 108.63 141.632 105.827 140.446 103.713C139.978 102.856 139.401 102.215 138.767 101.838L133.675 93.0007L131.409 97.3657L136.668 105.611C136.881 106.746 137.245 107.774 137.726 108.606V108.611Z" fill="#A0616A"/>
    <path d="M126.896 44.9515C126.896 44.9515 119.595 44.4182 119.299 50.491C119.007 56.5638 123.998 83.6639 123.998 83.6639L134.071 105.112L137.616 98.9316L128.014 74.9731L126.899 44.9515H126.896Z" fill="#DB4444"/>
    <path d="M105.518 94.1603L99.4193 61.0167C94.4881 53.241 89.1387 71.9683 74.7798 61.3495L79.2955 98.8385C90.1528 88.3322 99.4958 84.2167 105.518 94.1603Z" fill="white"/>
    <path d="M79.2953 99.8174C79.257 99.8174 79.216 99.8027 79.1805 99.7733C79.1012 99.7097 79.0465 99.5825 79.0274 99.4308L74.5117 61.9418C74.4898 61.7656 74.5254 61.5797 74.6047 61.4622C74.6839 61.3448 74.7905 61.3154 74.8835 61.3839C83.0402 67.4127 88.3048 63.8258 92.1508 61.2029C95.0729 59.2112 97.38 57.6355 99.5995 61.1344C99.6351 61.1931 99.6624 61.2665 99.6788 61.3497L105.777 94.4933C105.815 94.7037 105.769 94.9386 105.665 95.056C105.561 95.1783 105.422 95.1539 105.332 95.0022C100.04 86.2624 91.8064 87.7696 79.4265 99.7538C79.3855 99.7929 79.3418 99.8125 79.2953 99.8125V99.8174ZM75.1541 62.6367L79.4839 98.5891C91.3636 87.202 99.5011 85.4452 104.949 93.1427L99.1786 61.7901C97.2241 58.7953 95.1713 60.1948 92.3422 62.1228C88.488 64.7506 83.237 68.3327 75.1541 62.6416V62.6367Z" fill="#3F3D56"/>
    <path d="M84.2374 45.2256L80.3777 46.6545C80.3777 46.6545 70.0616 56.8183 72.0133 60.6695C73.9623 64.5207 82.2474 65.0149 82.2474 65.0149L83.9586 60.2731L81.8866 58.5359L87.1403 50.7798L84.2374 45.2256Z" fill="#A0616A"/>
    <path d="M94.8322 43.097C94.8322 43.097 91.0628 32.7472 87.3808 37.3569C83.6988 41.9666 80.3804 46.6545 80.3804 46.6545L84.9671 57.0238L94.835 43.097H94.8322Z" fill="#E6E6E6"/>
    <path d="M88.7953 64.9072C89.0055 63.0477 87.493 60.9306 85.417 60.1785C83.3411 59.4265 81.4878 60.3243 81.2776 62.1838C81.0674 64.0433 82.5799 66.1604 84.6558 66.9125C86.7318 67.6646 88.5851 66.7668 88.7953 64.9072Z" fill="#A0616A"/>
    <path d="M160.08 206.476C161.355 206.476 162.388 204.627 162.388 202.346C162.388 200.065 161.355 198.216 160.08 198.216C158.806 198.216 157.773 200.065 157.773 202.346C157.773 204.627 158.806 206.476 160.08 206.476Z" fill="#3F3D56"/>
    <path d="M163.156 212.881C164.43 212.881 165.463 211.032 165.463 208.751C165.463 206.47 164.43 204.621 163.156 204.621C161.882 204.621 160.849 206.47 160.849 208.751C160.849 211.032 161.882 212.881 163.156 212.881Z" fill="#3F3D56"/>
    <path d="M186.221 212.881C187.495 212.881 188.528 211.032 188.528 208.751C188.528 206.47 187.495 204.621 186.221 204.621C184.946 204.621 183.914 206.47 183.914 208.751C183.914 211.032 184.946 212.881 186.221 212.881Z" fill="#3F3D56"/>
    <path d="M166.534 146.946V102.098C166.534 97.077 168.879 95.834 171.684 95.834C173.059 95.834 173.726 95.5502 174.691 97.3021C175.656 99.0539 176.727 99.7831 176.705 102.244L176.301 146.252L166.531 146.942L166.534 146.946ZM171.957 98.775C169.453 98.775 167.081 97.6201 167.081 102.103V145.934L175.765 145.317L176.161 102.235C176.18 100.038 174.185 100.341 173.327 98.775C172.466 97.2091 173.187 98.775 171.96 98.775H171.957Z" fill="#3F3D56"/>
    <path d="M159.668 146.403L159.318 195.402C159.312 196.033 159.397 196.655 159.561 197.212L162.147 205.957C162.527 207.244 163.287 208.022 164.098 207.959L186.803 206.168C187.964 206.075 188.864 204.313 188.812 202.233L187.388 146.286C187.336 144.275 186.412 142.689 185.286 142.689H161.77C160.619 142.689 159.681 144.348 159.665 146.408L159.668 146.403Z" fill="#E6E6E6"/>
    <path d="M168.617 168.517L168.07 168.468L168.273 161.216C168.382 157.311 170.178 154.179 172.362 154.086L182.03 153.685C183.982 153.626 185.6 156.274 185.707 159.767L185.912 166.398L185.365 166.452L185.16 159.821C185.067 156.861 183.687 154.59 182.041 154.664L172.373 155.065C170.473 155.143 168.912 157.869 168.817 161.265L168.614 168.517H168.617Z" fill="#3F3D56"/>
    <path d="M168.231 203.642L167.688 203.545L168.866 182.963C169.084 179.155 170.858 176.156 172.993 175.984L182.424 175.226C183.613 175.128 184.742 175.882 185.605 177.345C186.469 178.808 186.95 180.785 186.964 182.914L187.071 200.834L186.524 200.843L186.417 182.923C186.406 181.064 185.985 179.337 185.231 178.054C184.476 176.772 183.484 176.117 182.451 176.2L173.02 176.958C171.154 177.11 169.604 179.728 169.412 183.056L168.234 203.638L168.231 203.642Z" fill="#3F3D56"/>
    <path d="M164.006 202.218L163.459 202.204L163.803 155.168C163.828 151.953 165.252 149.359 167.048 149.261L185.636 148.282L185.652 149.261L167.064 150.24C165.561 150.318 164.369 152.486 164.35 155.177L164.006 202.214V202.218Z" fill="#3F3D56"/>
    <path d="M164.055 195.519H163.675V152.682C163.675 151.326 163.06 150.22 162.3 150.22H160.176V149.242H162.3C163.303 149.242 164.128 150.626 164.213 152.378C164.219 152.476 164.221 152.579 164.221 152.682V172.965L164.055 195.519Z" fill="#3F3D56"/>
    <path d="M129.428 23.9243C129.428 30.1977 126.587 35.282 123.083 35.282C119.579 35.282 116.739 30.1977 116.739 23.9243C116.739 17.6508 119.579 12.5665 123.083 12.5665C126.587 12.5665 129.428 17.6508 129.428 23.9243Z" fill="#A0616A"/>
    <path d="M122.577 8.65677C122.76 8.84762 123.006 8.5589 123.067 8.19189C123.127 7.82488 123.056 7.43829 122.99 7.07617C122.875 6.46938 122.763 5.86748 122.648 5.26069C122.405 3.9737 122.148 2.64267 121.623 1.66398C120.831 0.186142 119.568 -0.190656 118.433 0.0833792C116.976 0.43571 115.539 1.84503 114.861 4.18412C114.183 6.52321 114.473 9.78227 115.697 11.2405C113.95 14.8226 113.344 18.8156 113.439 23.5623C113.535 28.3139 116.427 32.6838 118.313 36.0309C118.734 35.5758 119.117 33.4325 118.884 32.6544C118.652 31.8764 118.986 30.976 118.699 30.2566C118.412 29.5422 118.171 30.6824 118.461 29.9679C118.644 29.5177 117.93 28.4852 118.201 28.216C119.516 26.9144 119.953 23.9783 120.779 21.7322C121.776 19.0212 123.479 17.1861 125.286 16.8827C126.281 16.7163 127.331 17.0197 128.145 18.0523C128.96 19.0848 129.488 20.9296 129.299 22.6864C129.788 21.7958 130.032 20.4941 129.941 19.2561C129.848 18.018 129.425 16.8729 128.821 16.2417C129.187 14.0739 128.873 11.5782 128.022 9.90461C127.172 8.22614 123.725 8.51486 122.484 8.95527L122.58 8.66166L122.577 8.65677Z" fill="#2F2E41"/>
    <path d="M122.386 16.9462C120.743 17.2642 119.557 19.8137 118.554 22.1675C117.977 23.523 117.37 25.0204 117.386 26.7282C117.4 28.4508 118.045 29.9335 118.354 31.563C118.857 34.2349 118.368 37.4107 117.17 39.2409C118.354 39.6422 119.633 38.0567 119.836 35.928C120.073 33.4568 119.026 31.0688 119.149 28.5682C119.259 26.3661 120.229 24.673 121.052 23.0239C121.877 21.3748 122.651 19.1923 122.271 17.0881L122.386 16.9462Z" fill="#2F2E41"/>
    </g>
    <defs>
    <clipPath id="clip0_1_114">
    <rect width="200" height="212.881" fill="white"/>
    </clipPath>
    </defs>
    </svg>
    