<svg width="200" height="200" viewBox="0 0 200 200" fill="none" xmlns="http://www.w3.org/2000/svg">
    <g clip-path="url(#clip0_335_1326)">
    <path d="M181.1 199.074H138.693V197.317C138.693 195.792 139.142 194.329 139.941 193.25C140.74 192.172 141.824 191.566 142.954 191.566H176.84C177.97 191.566 179.054 192.172 179.853 193.25C180.651 194.329 181.1 195.792 181.1 197.317V199.074Z" fill="#E6E6E6"/>
    <path d="M158.905 191.916L160.194 191.215C146.701 146.001 148.001 88.9598 159.407 40.0284C160.762 34.359 160.86 28.2786 159.688 22.5352C158.517 16.7918 156.127 11.6359 152.813 7.70201C146.192 -0.273665 137.065 -2.21661 128.991 2.63089C121.022 7.41653 119.923 15.7524 119.923 24.0477H121.314C121.314 15.1929 122.715 8.45376 129.556 4.34586C137.123 -0.197138 145.68 1.62506 151.887 9.10263C155 12.7974 157.244 17.6399 158.345 23.0344C159.445 28.4288 159.353 34.1398 158.081 39.4647C146.543 88.9611 145.319 146.394 158.905 191.916Z" fill="#E6E6E6"/>
    <path d="M120.966 51.7328C123.654 51.7328 125.832 48.7916 125.832 45.1634C125.832 41.5353 123.654 38.5941 120.966 38.5941C118.278 38.5941 116.1 41.5353 116.1 45.1634C116.1 48.7916 118.278 51.7328 120.966 51.7328Z" fill="#E6E6E6"/>
    <path d="M113.471 56.6157V44.1683H114.905V56.6157C115.316 56.8402 115.657 57.2509 115.869 57.7773C116.08 58.3037 116.149 58.9131 116.065 59.5009C115.98 60.0888 115.746 60.6185 115.404 60.9994C115.062 61.3803 114.632 61.5886 114.188 61.5886C113.745 61.5886 113.315 61.3803 112.972 60.9994C112.63 60.6185 112.397 60.0888 112.312 59.5009C112.227 58.9131 112.296 58.3037 112.508 57.7773C112.72 57.2509 113.06 56.8402 113.471 56.6157Z" fill="#E6E6E6"/>
    <path d="M106.541 34.6055C106.543 31.7441 107.386 29.0009 108.885 26.9776C110.384 24.9543 112.416 23.8162 114.535 23.813H127.744C129.864 23.813 131.898 24.95 133.397 26.974C134.897 28.998 135.739 31.7431 135.739 34.6055C135.739 37.4678 134.897 40.2129 133.397 42.2369C131.898 44.2609 129.864 45.398 127.744 45.398H114.535C112.416 45.3947 110.384 44.2566 108.885 42.2333C107.386 40.21 106.543 37.4668 106.541 34.6055Z" fill="#DB4444"/>
    <path d="M88.0044 100.977C89.3306 78.0725 96.1113 67.1595 91.7695 60.3158C87.6106 53.7605 75.8957 55.1146 68.3722 61.405C48.0795 78.3716 40.6451 145.994 66.7586 179.033C91.5731 210.428 138.601 200.373 149.053 174.676C151.491 168.68 153.428 158.17 149.859 151.804C140.999 136 108.782 164.625 94.4589 146.721C85.9702 136.111 87.2766 113.547 88.0044 100.977Z" fill="#DB4444"/>
    <path d="M103.442 90.0602C102.949 90.3663 102.564 90.9199 102.369 91.6032C102.174 92.2866 102.184 93.0458 102.397 93.7193C102.442 93.8552 102.495 93.986 102.556 94.1101L98.2008 101.961L100.374 106.346L105.479 94.7206C105.841 94.3398 106.099 93.8081 106.214 93.2084C106.328 92.6087 106.292 91.9748 106.111 91.4056C106.006 91.0831 105.855 90.7916 105.667 90.5479C105.478 90.3042 105.256 90.113 105.013 89.9852C104.769 89.8574 104.51 89.7956 104.249 89.8032C103.988 89.8108 103.731 89.8878 103.492 90.0296C103.475 90.0395 103.459 90.0497 103.442 90.0602Z" fill="#FFB6B6"/>
    <path d="M103.439 103.596C103.724 103.938 102.933 104.359 102.097 103.694C101.857 103.502 101.755 103.422 101.728 103.473C101.661 103.6 102.054 104.537 101.949 106.617C101.884 107.859 100.357 110.193 98.622 112.469C96.2769 115.548 93.5499 118.518 93.5499 118.518L92.5925 117.483L82.5532 106.617L80.8589 103.451C81.014 102.201 81.247 100.971 81.5554 99.7734C81.9802 98.1162 82.4851 96.4983 83.0669 94.9303C83.3788 94.0772 83.6988 93.264 84.0054 92.5161L89.3841 100.518L93.8915 107.22C93.8915 107.22 95.2039 104.366 96.2204 103.589C96.3501 103.477 96.4976 103.409 96.6508 103.389C97.6781 103.324 97.7399 102.569 96.5486 100.924C95.3572 99.2797 96.8605 100.815 97.9201 100.372C98.9797 99.9295 97.9201 100.372 98.1433 99.2651C98.3666 98.1579 101.338 95.936 101.338 95.936L101.462 96.0848L103.708 98.7605L104.35 99.5266C104.35 99.5266 103.648 102.126 103.455 102.674C103.261 103.222 103.156 103.251 103.439 103.596Z" fill="#E6E6E6"/>
    <path d="M162.636 154.029L162.745 150.025L151.355 147.549L151.194 153.459L162.636 154.029Z" fill="#FFB6B6"/>
    <path d="M160.568 155.235L160.46 148.823L162.491 148.924L165.769 142.997C165.931 142.704 166.158 142.489 166.416 142.383C166.675 142.276 166.953 142.284 167.208 142.406C167.463 142.527 167.683 142.756 167.835 143.058C167.987 143.36 168.064 143.72 168.054 144.085L167.846 151.702L165.802 152.914L167.796 153.527L167.718 156.399L160.568 155.235Z" fill="#2F2E41"/>
    <path d="M98.5326 155.588L134.608 156.823C134.608 156.823 150.187 158.038 153.842 154.828L157.697 154.171L157.906 146.528C157.906 146.528 155.549 146.552 154.193 145.699C152.838 144.847 153.78 143.804 152.488 144.829C151.196 145.855 151.333 145.978 150.334 145.507C149.335 145.036 103.525 135.61 103.525 135.61L98.5326 155.588Z" fill="#2F2E41"/>
    <path d="M146.071 152.272L148.169 149.437L141.066 137.164L137.97 141.349L146.071 152.272Z" fill="#FFB6B6"/>
    <path d="M143.948 149.805L147.099 145.006L148.536 146.944L153.926 145.608C154.192 145.542 154.467 145.593 154.71 145.753C154.954 145.912 155.153 146.173 155.279 146.497C155.405 146.82 155.451 147.189 155.41 147.55C155.369 147.912 155.244 148.246 155.053 148.504L151.063 153.897L148.953 152.909L150.107 155.189L148.603 157.223L143.948 149.805Z" fill="#2F2E41"/>
    <path d="M84.2997 128.917L84.6583 140.171C85.0805 153.42 95.8889 161.439 104.27 154.521C104.424 154.394 104.579 154.262 104.735 154.125C104.735 154.125 107.912 152.973 107.816 151.149C107.719 149.325 108.495 148.437 109.182 148.935C109.869 149.432 118.863 132.202 118.863 132.202C118.863 132.202 137.549 144.784 141.671 147.747C141.671 147.747 145.547 139.566 145.266 139.652C144.985 139.737 122.149 118.161 122.149 118.161C122.149 118.161 118.429 113.078 113.814 116.434C113.718 116.927 113.8 116.944 113.8 116.944L98.5557 133.713L96.4017 128.191L84.2997 128.917Z" fill="#2F2E41"/>
    <path d="M98.6731 114.847C98.6442 115.367 98.5894 115.884 98.5091 116.394C98.3993 117.132 98.2222 117.849 97.982 118.528C97.982 118.528 97.982 119.287 96.9062 121.829C95.8305 124.37 97.1752 123.281 97.982 125.169C98.7888 127.053 97.982 126.185 97.0864 127.398C96.8286 127.751 96.6455 128.19 96.5561 128.671C96.4667 129.152 96.4743 129.656 96.5781 130.132C96.5781 130.132 85.0247 130.142 82.8732 129.053C80.7217 127.964 80.2323 121.829 82.1605 121.222C84.0861 120.616 81.5769 120.013 80.4447 118.616C79.3125 117.218 81.5769 114.931 81.5769 114.931C81.5769 114.931 80.6437 112.756 80.7217 105.455C80.7327 104.784 80.7785 104.114 80.8589 103.451C81.014 102.201 81.247 100.971 81.5554 99.7734C81.9802 98.1162 82.4851 96.4984 83.0668 94.9304C83.3788 94.0772 83.6988 93.264 84.0054 92.5161C84.0538 92.3999 84.0995 92.2874 84.1479 92.1748C84.7315 90.7807 85.264 89.6408 85.6163 88.911C85.8879 88.3447 86.052 88.0252 86.052 88.0252L88.0098 83.429L94.545 87.5641L94.1738 94.3277L95.3007 99.4285L95.8197 101.777L96.2204 103.589L96.839 106.395C96.839 106.395 96.6695 106.406 96.8712 106.78C97.8002 108.447 98.4023 110.404 98.622 112.469C98.6994 113.257 98.7166 114.054 98.6731 114.847Z" fill="#E6E6E6"/>
    <path d="M117.546 115.576L117.423 115.523L101.781 108.723L107.545 83.1965C107.66 82.6882 107.859 82.2217 108.127 81.8322C108.394 81.4426 108.724 81.1402 109.091 80.9477C109.458 80.7552 109.852 80.6777 110.245 80.7209C110.637 80.7642 111.017 80.9271 111.356 81.1974L121.352 89.1695C122.143 89.7999 122.745 90.7856 123.052 91.9543C123.36 93.123 123.353 94.4004 123.034 95.5633L117.546 115.576Z" fill="#2F2E41"/>
    <path d="M117.609 117.199L101.842 110.345L107.606 84.8181C107.721 84.3098 107.919 83.8433 108.187 83.4537C108.455 83.0642 108.785 82.7617 109.151 82.5693C109.518 82.3768 109.913 82.2992 110.305 82.3425C110.698 82.3857 111.078 82.5486 111.416 82.8189L121.889 89.8775C123.463 91.132 123.426 94.379 122.695 97.0432L117.609 117.199Z" fill="#DB4444"/>
    <path d="M116.031 119.046C115.668 119.323 115.266 119.495 114.851 119.55C114.436 119.606 114.017 119.545 113.621 119.37L103.543 114.989C102.77 114.648 102.126 113.912 101.749 112.939C101.372 111.966 101.292 110.832 101.526 109.78L106.579 87.4033C106.68 86.9562 106.846 86.5409 107.067 86.1816C107.288 85.8223 107.561 85.5263 107.868 85.311C108.175 85.0957 108.511 84.9654 108.857 84.9277C109.202 84.89 109.549 84.9457 109.878 85.0916L120.322 89.7209C120.819 89.9414 121.279 90.2943 121.674 90.7588C122.069 91.2233 122.391 91.7899 122.621 92.4251C122.851 93.0604 122.984 93.7514 123.013 94.4574C123.042 95.1634 122.966 95.87 122.789 96.5355L117.386 116.868C117.144 117.791 116.662 118.565 116.031 119.046Z" fill="#3F3D56"/>
    <path d="M94.1755 83.5075C98.1621 83.5075 101.394 79.1447 101.394 73.7629C101.394 68.3812 98.1621 64.0184 94.1755 64.0184C90.1888 64.0184 86.957 68.3812 86.957 73.7629C86.957 79.1447 90.1888 83.5075 94.1755 83.5075Z" fill="#FFB6B6"/>
    <path d="M69.766 83.6543C70.4284 85.3876 71.5146 86.7584 72.8403 87.5339C73.3693 87.8593 73.9256 88.0969 74.497 88.2417C74.6585 87.3771 74.917 86.5509 75.2636 85.7918C75.1481 86.6474 75.1481 87.5241 75.2636 88.3797C76.1341 88.4758 77.0099 88.329 77.8365 87.9485C78.6484 87.5758 79.3847 86.9528 79.9871 86.1289C80.5896 85.305 81.0414 84.303 81.307 83.2023C81.882 80.6193 81.2626 77.8605 81.2138 75.1644C81.1636 72.468 82.1121 69.243 84.0949 68.9093C85.605 68.6548 85.4182 68.8524 86.5033 70.2925C84.9855 72.5685 88.6856 82.6492 90.671 82.2038C91.7936 81.9519 92.6196 80.7488 92.8416 80.7906C93.9784 84.549 90.5587 89.8793 93.271 91.6292L93.0698 91.2697C91.6501 88.1035 95.8509 82.7561 94.4312 79.5899C94.0354 78.7042 93.6239 77.6658 93.8688 76.686C94.1012 75.7545 95.2782 75.4596 95.5265 76.3075C95.1228 74.3641 96.2498 72.0831 97.7465 71.8848C99.0763 71.7077 98.9995 72.2194 100.267 72.6862C100.429 71.9489 100.663 71.2437 100.962 70.589C100.861 71.3359 100.848 72.0999 100.925 72.8522C101.382 72.9258 101.845 72.7937 102.24 72.4762C103.411 71.5287 103.446 69.083 102.642 67.5945C101.836 66.1057 100.486 65.3706 99.1844 64.8144C99.1724 61.0972 91.7631 59.3176 90.4004 62.7736C90.2602 59.9754 87.8841 58.0904 85.8372 58.5657C83.7903 59.0411 82.1755 61.2567 81.1909 63.7264C80.2066 66.194 79.718 68.9571 78.9973 71.5855C78.2767 74.214 77.2466 76.8349 75.5211 78.3944C73.7958 79.952 71.2317 80.0935 69.7911 78.0747C69.4626 78.9367 69.2891 79.891 69.2848 80.8604C69.2804 81.8298 69.4453 82.7869 69.766 83.6543Z" fill="#2F2E41"/>
    <path d="M77.1728 128.215C77.3221 128.054 77.4841 127.916 77.6559 127.802C80.4189 125.946 89.0109 121.128 95.7292 121.325C108.656 121.706 125.107 140.964 121.278 153.897C118.365 163.738 103.881 169.337 93.3088 164.859C78.4976 158.585 72.6515 133.082 77.1728 128.215Z" fill="#DB4444"/>
    <path d="M23.509 199.111C19.2851 198.035 15.5462 172.346 23.8566 159.695C26.7038 155.36 30.2554 153.473 34.9797 151.718C62.171 141.612 82.9103 151.243 85.6974 153.595C88.4781 155.941 93.3531 191.291 87.1193 196.295C83.6118 199.111 76.6598 200.518 73.2154 197.234C68.1471 192.401 76.6543 179.864 72.8678 171.426C68.5709 161.85 45.9444 158.624 34.6006 168.141C22.4978 178.294 47.4617 205.211 23.509 199.111Z" fill="#F2F2F2"/>
    <path d="M51.7494 155.434H35.6127C31.6291 150.281 28.7809 145.314 31.0612 141.191C31.0612 140.006 31.41 138.869 32.0308 138.031C32.6515 137.193 33.4935 136.723 34.3714 136.723H52.9907C53.8686 136.723 54.7106 137.193 55.3313 138.031C55.9521 138.869 56.3008 140.006 56.3008 141.191C57.169 145.889 55.618 150.637 51.7494 155.434Z" fill="#CCCCCC"/>
    <path d="M48.8513 131.097C48.6982 131.107 48.5467 131.053 48.4172 130.942C48.2877 130.831 48.1865 130.669 48.1274 130.479C48.0682 130.288 48.054 130.077 48.0866 129.875C48.1192 129.672 48.197 129.489 48.3096 129.348L48.3608 129.073C48.3541 129.051 48.3473 129.029 48.3405 129.007C48.1862 128.516 47.9278 128.096 47.5975 127.802C47.2673 127.508 46.8801 127.352 46.4844 127.354C46.0888 127.356 45.7024 127.516 45.3739 127.813C45.0453 128.111 44.7891 128.533 44.6376 129.026C44.032 130.995 43.2609 132.967 43.071 135.049C42.9874 135.97 43.0227 136.903 43.1753 137.807C41.7528 133.618 41.0142 129.065 41.0095 124.457C41.0092 123.301 41.0567 122.146 41.152 120.996C41.2307 120.054 41.3399 119.119 41.4797 118.19C42.2421 113.152 43.879 108.429 46.2559 104.41C47.4064 103.563 48.3368 102.26 48.9217 100.677C49.1337 100.108 49.2834 99.5 49.3664 98.873C49.2366 98.896 48.8771 96.2278 48.9749 96.0641C48.7941 95.6936 48.4704 95.5095 48.2729 95.148C47.2905 93.35 45.937 93.6639 45.2305 96.1072C43.7211 97.1356 43.7065 98.8411 44.6326 100.481C45.2219 101.525 45.3028 102.937 45.8198 104.054C45.7666 104.146 45.7113 104.235 45.6581 104.327C44.6858 106.015 43.8384 107.827 43.128 109.738C43.3008 107.597 43.0946 105.432 42.5264 103.419C41.9505 101.544 40.8712 99.9648 39.9207 98.3436C38.779 96.3963 36.4379 97.2461 36.2367 99.7146C36.2348 99.7385 36.2329 99.7624 36.231 99.7863C36.3722 99.8938 36.5104 100.008 36.6456 100.129C36.8155 100.282 36.9471 100.501 37.0233 100.757C37.0994 101.013 37.1165 101.294 37.0723 101.563C37.0281 101.832 36.9247 102.077 36.7756 102.266C36.6265 102.454 36.4387 102.578 36.2368 102.62L36.2162 102.624C36.2664 103.311 36.3553 103.992 36.4821 104.66C35.2627 111.026 37.8952 113.345 41.6541 113.449C41.7371 113.506 41.8179 113.564 41.9009 113.618C41.1872 116.349 40.7395 119.193 40.5691 122.079C40.4726 123.782 40.4783 125.493 40.5861 127.194L40.5797 127.134C40.3074 125.242 39.5596 123.535 38.4628 122.3C36.8337 120.494 34.5322 119.829 32.7747 118.377C32.5879 118.215 32.3707 118.128 32.1488 118.127C31.9268 118.127 31.7093 118.212 31.522 118.372C31.3346 118.533 31.1852 118.763 31.0913 119.034C30.9975 119.306 30.9631 119.608 30.9923 119.905C30.9946 119.926 30.997 119.947 30.9995 119.968C31.2614 120.112 31.5165 120.278 31.7632 120.465C31.9044 120.573 32.0426 120.687 32.1778 120.807C32.3477 120.961 32.4793 121.18 32.5554 121.436C32.6316 121.691 32.6487 121.972 32.6045 122.242C32.5603 122.511 32.4569 122.756 32.3078 122.944C32.1587 123.133 31.9709 123.256 31.769 123.298L31.7483 123.303C31.7334 123.306 31.7207 123.308 31.7058 123.311C32.1534 124.754 32.7817 126.082 33.5631 127.237C34.3255 132.794 37.6002 133.322 41.1031 131.703H41.1052C41.4895 133.958 42.0464 136.153 42.7668 138.252H48.7026C48.7239 138.163 48.743 138.071 48.7622 137.982C48.2128 138.028 47.6612 137.984 47.1197 137.85C47.5601 137.12 48.0005 136.385 48.4409 135.655C48.4508 135.642 48.46 135.627 48.4686 135.612C48.692 135.239 48.9175 134.868 49.1409 134.495L49.141 134.495C49.1529 133.35 49.0554 132.208 48.8513 131.097Z" fill="#CCCCCC"/>
    <path d="M69.0972 154.267C69.1956 154.654 69.3824 154.989 69.6306 155.224C69.8788 155.459 70.1758 155.581 70.4788 155.574L76.3986 155.368C76.7039 155.36 76.999 155.219 77.2399 154.966C77.4808 154.712 77.6545 154.361 77.7351 153.963L78.5728 141.871C78.87 142.052 79.1936 142.142 79.5198 142.133C80.0922 142.114 80.6355 141.788 81.0301 141.228C81.4246 140.668 81.6382 139.919 81.6239 139.147C81.6095 138.374 81.3683 137.641 80.9534 137.108C80.5385 136.575 79.9839 136.287 79.4115 136.306C79.2811 136.306 79.151 136.324 79.0235 136.361C78.8848 136.158 78.7163 135.997 78.5287 135.888C78.3411 135.779 78.1387 135.724 77.9344 135.726L68.8283 136.044C68.7528 136.048 68.6776 136.06 68.6037 136.082C68.404 136.132 68.2146 136.239 68.0483 136.397C67.8819 136.554 67.7424 136.758 67.6393 136.994C67.5361 137.23 67.4716 137.493 67.4501 137.766C67.4286 138.039 67.4507 138.314 67.5148 138.575L69.0972 154.267ZM78.7446 141.05L79.3407 138.168C79.4085 137.835 79.4101 137.484 79.3453 137.15C79.3742 137.15 79.3997 137.131 79.4287 137.131C79.8373 137.12 80.2326 137.328 80.5279 137.709C80.8232 138.091 80.9944 138.615 81.004 139.167C81.0136 139.718 80.8607 140.253 80.579 140.652C80.2972 141.052 79.9096 141.285 79.501 141.299C79.2367 141.31 78.9752 141.224 78.7446 141.05Z" fill="#CCCCCC"/>
    <path d="M68.6038 136.082C68.7978 137.579 70.9789 138.632 73.6016 138.449C76.0133 138.299 77.9853 137.156 78.3466 135.801C78.2129 135.747 78.0738 135.722 77.9344 135.726L68.8284 136.044C68.7528 136.048 68.6777 136.06 68.6038 136.082Z" fill="white"/>
    <path d="M0.317035 199.678L199.683 199.788C199.767 199.788 199.848 199.743 199.907 199.663C199.967 199.583 200 199.474 200 199.36C200 199.247 199.967 199.138 199.907 199.058C199.848 198.977 199.767 198.932 199.683 198.932L0.317035 198.822C0.232951 198.822 0.152313 198.867 0.0928572 198.947C0.0334013 199.027 0 199.136 0 199.25C0 199.363 0.0334013 199.472 0.0928572 199.552C0.152313 199.633 0.232951 199.678 0.317035 199.678Z" fill="#CACACA"/>
    <path d="M112.135 104.028C111.593 104.055 111.08 104.366 110.705 104.895C110.33 105.425 110.123 106.131 110.128 106.863C110.131 107.012 110.143 107.161 110.164 107.307L103.907 112.293L104.664 117.47L112.688 109.388C113.131 109.224 113.521 108.867 113.797 108.373C114.073 107.878 114.221 107.275 114.216 106.655C114.211 106.303 114.154 105.956 114.05 105.633C113.945 105.31 113.794 105.018 113.606 104.774C113.418 104.53 113.196 104.338 112.953 104.21C112.71 104.081 112.451 104.019 112.19 104.026C112.171 104.026 112.153 104.027 112.135 104.028Z" fill="#FFB6B6"/>
    <path d="M107.01 115.916C106.842 115.613 106.77 115.486 106.732 115.521C106.634 115.601 106.729 116.67 106.04 118.534C105.069 121.153 94.898 125.163 94.898 125.163L93.6456 122.068L88.1372 108.467L86.2385 97.5652C86.1721 97.1851 86.1399 96.7956 86.1425 96.405C87.8353 94.7969 89.6331 93.4 91.5134 92.2316C92.2648 92.8069 92.8376 93.7282 93.1271 94.8269L96.9189 109.179L98.432 114.909C98.432 114.909 101.101 112.333 102.069 112.806C103.036 113.282 103.311 112.615 102.679 110.479C102.047 108.343 102.995 110.541 104.099 110.681C105.205 110.823 104.099 110.681 104.621 109.775C105.144 108.868 108.521 108.358 108.521 108.358L108.592 108.561L109.901 112.195L110.276 113.239C110.276 113.239 108.888 115.271 108.553 115.676C108.217 116.084 108.113 116.056 108.278 116.52C108.44 116.983 107.591 116.962 107.01 115.916Z" fill="#E6E6E6"/>
    </g>
    <defs>
    <clipPath id="clip0_335_1326">
    <rect width="200" height="200" fill="white"/>
    </clipPath>
    </defs>
    </svg>
    