<svg width="45" height="57" viewBox="0 0 45 57" fill="none" xmlns="http://www.w3.org/2000/svg">
<path d="M10.5091 18.3937C11.0371 18.3937 11.4651 17.741 11.4651 16.9359C11.4651 16.1308 11.0371 15.4781 10.5091 15.4781C9.98119 15.4781 9.55321 16.1308 9.55321 16.9359C9.55321 17.741 9.98119 18.3937 10.5091 18.3937Z" fill="black"/>
<path d="M41.9089 39.8705C41.1116 38.2859 39.9021 36.178 38.9559 35.8472C38.4336 35.3572 37.6266 34.9635 36.7621 34.5531L36.3215 34.3414C36.3333 33.9012 36.2259 33.5827 35.9876 33.3719C34.5302 32.0865 33.0519 30.186 31.6319 28.0484C31.67 27.9224 31.6922 27.7859 31.6922 27.6389C31.6922 27.0867 31.3978 26.6396 31.0355 26.6396C30.9309 26.6396 30.8353 26.651 30.7321 26.6527C30.3178 25.9888 29.9127 25.3159 29.5171 24.6341C29.5849 24.4775 29.6341 24.2999 29.6341 24.0986C29.6341 23.5456 29.3397 23.0985 28.9781 23.0985C28.9442 23.0985 28.8257 23.0994 28.6449 23.1081C28.1832 22.2802 27.729 21.4457 27.2824 20.6047C27.3108 20.4936 27.3295 20.3755 27.3295 20.2504C27.3295 19.6974 27.0358 19.2494 26.6742 19.2494C26.6388 19.2494 26.607 19.2529 26.573 19.2529C26.1523 18.4414 25.735 17.6271 25.3213 16.8099C25.3421 16.711 25.3622 16.6095 25.3622 16.501C25.3622 15.9489 25.0671 15.5017 24.7062 15.5017L24.6605 15.5035C22.973 12.175 22.6662 11.6727 22.1986 11.6727C21.8896 11.6727 21.6029 11.699 21.3237 11.7349C21.2184 11.496 21.111 11.2641 21.0064 11.0217C20.6802 10.2675 19.9833 9.36536 18.5224 9.36536C16.3092 9.36536 13.2723 11.4417 11.49 12.8286C9.8005 11.923 8.36382 11.454 7.23262 11.454C6.07788 11.454 5.54034 11.9291 5.31521 12.217C5.30135 12.2319 5.28473 12.2406 5.27157 12.2581C4.02608 13.9766 3.22461 17.1896 2.70993 20.372C1.88977 23.6681 1.80041 26.3517 1.81357 27.589C1.763 27.6642 1.71932 27.7464 1.68334 27.834C1.20468 29.0896 1.30235 33.9625 1.97566 35.0204C3.70258 37.7442 5.46968 39.51 7.34069 41.3799C9.45691 43.4947 11.6445 45.6814 14.2158 49.5795C16.4311 52.9395 21.0432 54.8654 26.8709 54.8654C34.6348 54.8654 42.948 51.3837 42.948 46.2029C42.948 40.4996 42.461 39.8976 41.9089 39.8705ZM41.1462 40.7507C39.6451 43.6916 32.6758 45.2771 26.5398 45.2771C24.4915 45.2771 22.6835 45.0986 21.447 44.7731C19.7346 44.3225 18.1213 43.577 16.6084 42.6547C18.0292 40.3062 20.6005 39.9414 23.2203 39.9414C24.2379 39.9414 25.2881 39.9991 26.4012 40.0621C27.538 40.1251 28.7135 40.1899 29.8759 40.1899C32.6813 40.1899 36.2135 39.8381 38.8561 37.1527C39.3293 37.5132 40.2693 38.9946 41.1462 40.7507ZM32.9072 32.7296C33.3082 33.2581 33.6865 33.7595 34.0113 34.2066C34.4554 34.8191 35.403 35.2697 36.4047 35.7466C36.9228 35.9934 37.4444 36.2462 37.8566 36.5026C35.5263 38.6096 32.5359 38.915 29.8759 38.915C28.7904 38.915 27.6848 38.8555 26.6084 38.7951C26.6063 37.4012 26.4456 35.9837 26.1733 35.1157C27.7437 33.9502 30.0013 32.8276 32.9072 32.7296ZM29.8856 28.6871C30.414 29.4156 30.9481 30.1376 31.4878 30.8527C28.8666 31.2264 26.8113 32.3455 25.3456 33.4874C24.8319 32.5726 24.3142 31.6614 23.7925 30.7539C25.18 29.7844 27.1646 28.8892 29.8856 28.6871ZM28.5743 26.8356C26.0688 27.2285 24.2088 28.1787 22.8781 29.1859C22.4593 28.4695 22.0494 27.7774 21.6486 27.1095C23.6727 25.8819 25.9953 25.4024 27.4743 25.2169C27.8483 25.7795 28.2134 26.3141 28.5743 26.8356ZM20.7016 25.552C20.2012 24.7374 19.6944 23.9292 19.1812 23.1274C20.64 22.3311 22.6059 21.5812 25.0477 21.3389C25.4551 22.0275 25.871 22.7081 26.2953 23.3802C24.6695 23.6769 22.5636 24.2911 20.7016 25.552ZM26.413 21.2601C26.7183 21.8376 27.0337 22.4233 27.3593 23.0171C26.9921 22.4394 26.6312 21.8554 26.2766 21.2654C26.3218 21.2624 26.3673 21.2607 26.413 21.2601ZM24.4748 17.5099C24.7625 18.0774 25.0669 18.6736 25.3878 19.2984C25.3033 19.3036 25.223 19.3159 25.1391 19.3229C24.8022 18.7276 24.4713 18.127 24.1465 17.5212C24.2573 17.5177 24.3633 17.5116 24.4748 17.5099ZM18.1539 21.5611C17.6746 20.841 17.1866 20.1301 16.6902 19.4287C18.1864 18.6106 20.2659 17.8336 22.964 17.5877C23.3012 18.2306 23.638 18.855 23.9747 19.4611C21.519 19.8461 19.5753 20.7045 18.1539 21.5611ZM22.058 12.952C22.3032 13.2705 22.858 14.3292 23.4794 15.5455C23.3626 15.5519 23.2467 15.5592 23.1317 15.5674C22.7003 14.7103 22.2818 13.843 21.8765 12.966C21.9381 12.9634 21.9942 12.9537 22.058 12.952ZM18.5224 10.6411C19.3051 10.6411 19.8268 10.9657 20.1163 11.6334C20.7113 13.0072 21.3375 14.359 21.9942 15.6872C19.1846 16.0731 17.0663 17.0129 15.5777 17.9299C14.1202 16.0267 12.8886 14.7134 11.8932 14.0204C13.5626 12.7079 16.5087 10.6411 18.5224 10.6411ZM6.0758 13.0579C6.18248 12.9616 6.51152 12.7289 7.23193 12.7289C7.79025 12.7289 8.68385 12.882 9.99376 13.4612C8.23567 13.7115 7.2631 15.4545 6.47896 16.893C5.97467 17.8152 5.50085 18.6859 5.05752 18.7156C4.78598 18.2781 5.27087 15.6032 6.0758 13.0579ZM4.02885 18.7987C4.06487 19.0437 4.12583 19.2572 4.21588 19.427C4.40153 19.7726 4.68969 19.9607 5.02773 19.9607C6.03493 19.9607 6.65629 18.8215 7.31436 17.614C8.10128 16.1737 8.91383 14.6845 10.4184 14.6845C11.2593 14.6845 12.714 16.046 14.6404 18.5511C14.159 18.9029 13.7884 19.224 13.5086 19.4856C13.4309 19.4533 13.3499 19.4356 13.2682 19.4331C12.7397 19.4331 12.3116 20.0859 12.3116 20.8909C12.3116 21.6959 12.7397 22.3486 13.2682 22.3486C13.7309 22.3486 14.1168 21.8472 14.2054 21.1805C14.6865 20.7408 15.1931 20.3477 15.7211 20.0045C16.2297 20.7155 16.7282 21.4377 17.2166 22.171C16.7725 22.4836 16.3424 22.8268 15.9282 23.1991C15.8463 23.1612 15.7598 23.1414 15.6726 23.1405C15.1447 23.1405 14.7166 23.7924 14.7166 24.5982C14.7166 25.4041 15.1447 26.056 15.6726 26.056C16.1277 26.056 16.5066 25.5695 16.6036 24.9194C17.1181 24.4622 17.658 24.0522 18.219 23.6926C18.7344 24.4871 19.2668 25.3294 19.8164 26.2196C19.2501 26.6919 18.7289 27.2454 18.2633 27.869C18.2377 27.8655 18.2134 27.8576 18.1871 27.8576C17.6572 27.8576 17.2298 28.5104 17.2298 29.3154C17.2298 30.1204 17.6572 30.7731 18.1871 30.7731C18.7046 30.7731 19.125 30.1414 19.1389 29.3556C19.612 28.7252 20.1505 28.1786 20.7397 27.7307C21.1591 28.4249 21.5879 29.1439 22.0261 29.8876C21.5197 30.3481 21.0507 30.871 20.6261 31.4486C20.6047 31.4469 20.5839 31.439 20.5624 31.439C20.0353 31.439 19.6065 32.0926 19.6065 32.8976C19.6065 33.7017 20.0353 34.3554 20.5624 34.3554C21.0847 34.3554 21.5059 33.7166 21.5163 32.9247C21.9414 32.3629 22.4131 31.8604 22.9232 31.4259C23.4547 32.346 23.9814 33.2706 24.5032 34.1996C24.0284 34.6273 23.578 35.0966 23.1552 35.604C23.1109 35.5944 23.0672 35.5839 23.0222 35.5839C22.493 35.5839 22.0656 36.2375 22.0656 37.0416C22.0656 37.8466 22.493 38.4994 23.0222 38.4994C23.5168 38.4994 23.9207 37.921 23.9678 37.1825C24.3904 36.683 24.8417 36.2235 25.3179 35.8079C25.5194 36.5289 25.6053 37.6559 25.6012 38.7426C24.8085 38.6964 24.0152 38.6704 23.2217 38.6647C20.2458 38.6647 17.3178 39.1171 15.6871 42.0676C11.3535 39.139 7.95373 34.7999 5.72668 31.6184C5.77655 28.7799 5.221 27.0062 4.66475 25.3096C4.20064 23.8904 3.76285 22.5464 3.71574 20.5741C3.80926 19.9782 3.91247 19.3815 4.02885 18.7987ZM3.72614 25.7952C4.15077 27.0911 4.55115 28.3546 4.68069 30.0932C4.49689 29.8191 4.32579 29.5624 4.16739 29.3232C3.46706 28.2715 3.09716 27.7255 2.827 27.456C2.83044 26.1948 2.92271 24.9366 3.1027 23.6961C3.28419 24.4477 3.50724 25.1276 3.72614 25.7952ZM26.8709 53.5896C21.3452 53.5896 17.0178 51.8309 14.9958 48.7657C12.3573 44.7644 10.027 42.436 7.97105 40.3806C6.14646 38.558 4.42369 36.8351 2.76743 34.2259C2.42938 33.6606 2.29154 30.1746 2.49104 28.8201C2.73071 29.1535 3.06391 29.6531 3.38948 30.1431C6.08758 34.1996 12.4065 43.6969 21.2406 46.0217C22.5422 46.3639 24.425 46.552 26.5398 46.552C31.2862 46.552 39.3424 45.5326 41.7621 41.8699C41.8486 42.5944 41.9338 43.8937 41.9338 46.2011C41.9338 50.0686 34.7539 53.5896 26.8709 53.5896Z" fill="black"/>
</svg>
